<?xml version="1.0" encoding="UTF-8" standalone="no"?>
<!-- Created with Inkscape (http://www.inkscape.org/) -->

<svg
   version="1.1"
   id="svg2"
   width="141"
   height="141.8391"
   viewBox="0 0 141 141.8391"
   xmlns="http://www.w3.org/2000/svg"
   xmlns:svg="http://www.w3.org/2000/svg">
  <defs
     id="defs6" />
  <g
     id="g8"
     transform="translate(-107.2147,-74.229164)">
    <path
       style="fill:#000000"
       d="m 164.4647,215.82551 -57.25,-0.32352 0.004,-16.74181 0.004,-16.74181 56.58728,-0.27146 c 47.0769,-0.22583 57.05832,-0.51504 59.39001,-1.7208 4.28548,-2.21611 9.11092,-7.49327 11.42681,-12.49652 1.98407,-4.28636 2.10283,-6.41774 2.38265,-42.76122 0.16198,-21.0375 -0.0236,-38.249996 -0.41245,-38.249996 -2.10848,0 -10.91077,6.87773 -14.38214,11.23758 -3.94417,4.953666 -5.34909,7.597936 -14.35187,27.012456 -16.82147,36.27555 -44.81997,56.39207 -75.64804,54.35204 -9.30757,-0.61592 -19.2314,-2.87376 -22.75,-5.176 -2.54594,-1.66582 -2.87645,-5.01488 -0.76946,-7.7971 1.54537,-2.04062 1.80126,-2.02537 14.51946,0.86507 13.65558,3.10348 27.79615,0.95038 40.54122,-6.17298 4.56034,-2.54882 14.23731,-10.76242 17.95255,-15.23773 8.83035,-10.63686 11.41901,-15.0562 22.45752,-38.33933 5.15127,-10.865356 7.04813,-13.767706 12.79816,-19.582116 8.19658,-8.28838 15.21184,-11.95338 24.54916,-12.82531 l 6.70114,-0.62579 -0.0156,42.894606 c -0.0169,46.33402 -0.37181,50.26087 -5.30357,58.67628 -3.70847,6.32802 -11.76938,13.23875 -17.96057,15.39784 -4.83724,1.68691 -8.90137,1.79432 -55.39331,1.46392 -27.59519,-0.19611 -50.54519,-0.12756 -51,0.15232 -0.45481,0.27989 -0.68027,3.14035 -0.50101,6.35657 l 0.32591,5.84767 62.54794,-0.28386 c 55.24673,-0.25072 62.8253,-0.10212 64.92408,1.27305 2.66917,1.74891 3.0934,5.14765 0.99991,8.01068 -1.66486,2.27682 -1.17713,2.26612 -82.37376,1.80727 z"
       id="path170" />
  </g>
</svg>
